<svg xmlns="http://www.w3.org/2000/svg" viewBox="0 0 20 20" fill="#f5fbf9"><g clip-path="url(#for-rent-a)"><path d="M10.305 9.954l-.408-.29-.014.558.422-.268zm-2.256 1.524l.383-.32-.5-.166.117.486zm.296.355l-.383.32.275.168.108-.488zm.65.143l.268.422-.16-.91-.109.488zm-.793.505l-.269-.421-.153.69.422-.268zm.505.793l-.422.269.314.219.108-.488zm1.314.29l.44.24-.332-.727-.108.488zm-.441.81l-.44-.239-.005.468.445-.229zm.353.69l-.444.228.336.26.108-.488zm1.065.235l.449.221-.34-.709-.109.488zm-.38.771l-.448-.22.026.489.422-.269zm.622.975l-.422.27.48.227-.058-.497zm.877-.102l.358-.35-.415-.147.057.497zm.37.379l.4.299-.042-.649-.358.35zm-.347.464l-.4-.3.262.78.138-.48zm2.592.748l-.139.48.584-.253-.445-.227zm.463-.91l.445.227-.024-.495-.421.268zM10.43 8.455c-.1.45-.285.857-.534 1.21l.816.577c.325-.459.565-.989.694-1.57l-.976-.217zM7.884 4.46a3.35 3.35 0 012.547 3.995l.976.217A4.35 4.35 0 008.1 3.484l-.216.976zM3.888 7.007A3.35 3.35 0 017.884 4.46l.216-.976A4.35 4.35 0 002.912 6.79l.976.216zm2.547 3.995a3.35 3.35 0 01-2.547-3.995l-.976-.216a4.35 4.35 0 003.307 5.188l.216-.977zm1.498-.01a3.333 3.333 0 01-1.498.01l-.216.977a4.335 4.335 0 001.945-.014l-.231-.973zm-.268.807l.297.355.767-.642-.297-.355-.767.643zm.572.522l.649.143.216-.976-.649-.143-.216.976zm.488-.766l-.792.505.537.843.793-.505-.538-.843zM7.78 12.75l.505.793.843-.538-.505-.792-.843.537zm.819 1.012l1.314.291.216-.976-1.314-.291-.216.976zm.983-.436l-.441.81.878.478.441-.81-.878-.478zm-.447 1.277l.354.689.89-.457-.354-.689-.89.457zm.69.949l1.065.235.216-.976-1.064-.236-.217.977zm.725-.474l-.38.771.896.442.38-.77-.896-.443zm-.354 1.26l.622.976.843-.537-.621-.976-.844.538zm1.102 1.204l.877-.102-.116-.994-.877.103.116.993zm.462-.25l.37.379.715-.699-.37-.378-.715.698zm.327-.27l-.347.464.8.6.348-.465-.801-.599zm-.085 1.244l2.591.748.277-.96-2.591-.749-.277.961zm3.175.495l.463-.91-.89-.453-.464.909.891.454zm.44-1.405l-4.89-7.671-.844.537 4.89 7.671.843-.537z"/><path fill-rule="evenodd" clip-rule="evenodd" d="M13.101 6.37c0 .53-.106 1.033-.299 1.491l6.433 6.432-.256.989-2.692-.17.239-.529-.443-.29-.835.29-.818-.818.205-.835h-1.09l-.495-.596.256-.886H11.96l-.665-.664.665-.665h-.665l-.366-.282a3.85 3.85 0 112.172-3.466zm-4.756.077a.982.982 0 100-1.963.982.982 0 000 1.963z"/><path d="M12.802 7.861l-.46-.194.107.548.353-.354zm6.433 6.432l.484.126-.13-.48-.354.354zm-.256.989l-.031.498.515-.373-.484-.126zm-2.692-.17l-.455-.207.424.705.031-.499zm.239-.529l.455.206-.182-.624-.273.418zm-.443-.29l.273-.418-.437-.054.164.472zm-.835.29l-.354.354.518.118-.164-.472zm-.818-.818l-.486-.119.133.473.353-.354zm.205-.835l.485.12-.485-.62v.5zm-1.09 0l-.386.32.385.18v-.5zm-.495-.596l-.48-.139.095.458.385-.319zm.256-.886l.48.139-.48-.639v.5zm-1.346 0l-.354.354.354.146v-.5zm-.665-.664l-.353-.354v.707l.353-.353zm.665-.665l.353.354-.353-.854v.5zm-.665 0l-.305.396.305.104v-.5zm-.366-.282l.305-.396-.523-.053.218.45zm2.334-1.782a4.339 4.339 0 00.338-1.684h-1c0 .46-.092.898-.26 1.296l.922.388zm6.325 5.885l-6.432-6.433-.707.708 6.432 6.432.707-.707zm-.125 1.467l.256-.989-.968-.25-.256.988.968.25zm-3.207.203l2.692.17.063-.997-2.692-.17-.063.997zm-.186-1.233l-.238.528.91.412.24-.528-.912-.412zm-.26.335l.442.29.547-.838-.443-.29-.547.838zm-.398.343l.835-.29-.328-.944-.835.29.328.944zm-1.335-.936l.817.818.707-.708-.817-.817-.707.707zm.072-1.308l-.204.835.97.238.205-.835-.971-.238zm-.605.62h1.09v-1h-1.09v1zm-.879-.778l.494.596.77-.638-.494-.596-.77.638zm.16-1.344l-.255.886.96.278.256-.886-.96-.277zm-.865.64h1.346v-1H11.96v1zm-1.018-.812l.664.665.707-.707-.664-.665-.707.707zm.664-1.371l-.664.664.707.707.664-.664-.707-.707zm-.31.853h.664v-1h-.665v1zm-.672-.385l.366.281.61-.792-.366-.282-.61.793zm-1.373.487c.679 0 1.322-.155 1.896-.434l-.436-.9c-.44.214-.936.334-1.46.334v1zM4.9 6.371a4.35 4.35 0 004.35 4.35v-1a3.35 3.35 0 01-3.35-3.35h-1zm4.35-4.35A4.35 4.35 0 004.9 6.37h1c0-1.85 1.5-3.35 3.35-3.35v-1zm4.35 4.35a4.35 4.35 0 00-4.35-4.35v1c1.85 0 3.35 1.5 3.35 3.35h1zm-4.774-.906a.482.482 0 01-.482.482v1c.818 0 1.482-.663 1.482-1.482h-1zm-.482-.481c.266 0 .482.215.482.481h1c0-.818-.664-1.481-1.482-1.481v1zm-.481.481c0-.266.215-.481.481-.481v-1c-.818 0-1.481.663-1.481 1.481h1zm.481.482a.482.482 0 01-.481-.482h-1c0 .819.663 1.482 1.481 1.482v-1z"/><path fill-rule="evenodd" clip-rule="evenodd" d="M1.006 3.752A3.434 3.434 0 117.76 5.004l.983.183a4.434 4.434 0 10-6.406 3.126 4.635 4.635 0 01.112-1.096 3.435 3.435 0 01-1.443-3.465z"/></g><defs><clipPath id="for-rent-a"><path d="M0 0h20v20H0z"/></clipPath></defs></svg>