<svg xmlns="http://www.w3.org/2000/svg" xmlns:xlink="http://www.w3.org/1999/xlink" width="500" zoomAndPan="magnify" viewBox="0 0 375 374.999991" height="500" preserveAspectRatio="xMidYMid meet" version="1.0"><defs><g/></defs><g fill="#f3cd74" fill-opacity="1"><g transform="translate(91.804686, 148.49999)"><g><path d="M 51.425781 -14.679688 C 51.253906 -14.851562 51.082031 -14.9375 50.910156 -14.9375 C 50.652344 -14.9375 50.394531 -14.765625 50.222656 -14.59375 C 49.964844 -14.335938 49.707031 -13.992188 49.449219 -13.738281 C 45.414062 -9.015625 39.835938 -1.632812 30.90625 -1.632812 C 24.382812 -1.632812 19.660156 -4.207031 14.59375 -6.867188 C 14.25 -7.039062 13.90625 -7.210938 13.566406 -7.382812 C 14.164062 -8.242188 14.765625 -9.101562 15.367188 -10.128906 C 18.027344 -14.421875 20.863281 -21.035156 23.953125 -26.871094 C 24.382812 -27.644531 24.8125 -28.417969 25.242188 -29.277344 C 33.140625 -32.195312 40.179688 -37.515625 45.757812 -43.785156 C 50.050781 -48.679688 52.457031 -53.230469 52.285156 -56.40625 C 52.199219 -58.207031 51.253906 -59.496094 49.621094 -60.183594 C 48.9375 -60.527344 48.164062 -60.699219 47.476562 -60.699219 C 43.011719 -60.699219 38.375 -54.601562 36.144531 -51.425781 C 32.195312 -45.757812 28.074219 -38.203125 24.039062 -30.5625 C 21.804688 -29.789062 19.402344 -29.277344 16.914062 -29.277344 C 14.25 -29.277344 11.589844 -29.960938 9.273438 -31.679688 C 9.101562 -31.765625 9.015625 -31.851562 8.84375 -31.851562 C 8.585938 -31.851562 8.328125 -31.679688 8.15625 -31.507812 C 7.898438 -31.164062 7.984375 -30.648438 8.328125 -30.390625 C 10.730469 -28.589844 13.566406 -27.644531 16.914062 -27.644531 C 17.515625 -27.644531 18.113281 -27.644531 18.800781 -27.730469 C 20.089844 -27.816406 21.550781 -28.074219 23.007812 -28.503906 C 22.835938 -28.246094 22.664062 -27.902344 22.492188 -27.644531 C 18.886719 -20.777344 15.195312 -12.707031 12.105469 -8.15625 C 10.214844 -9.101562 6.695312 -10.988281 4.550781 -10.988281 C 2.574219 -10.988281 1.460938 -9.871094 0.945312 -9.273438 C -0.429688 -7.382812 -0.34375 -4.636719 1.03125 -2.832031 C 1.546875 -2.230469 2.746094 -1.03125 4.894531 -1.03125 C 8.5 -1.03125 10.644531 -3.175781 12.621094 -6.007812 C 13.050781 -5.839844 13.394531 -5.667969 13.820312 -5.410156 C 18.800781 -2.746094 24.039062 0 30.90625 0 C 40.78125 0 45.074219 -6.09375 50.652344 -12.621094 C 50.910156 -12.964844 51.167969 -13.222656 51.425781 -13.480469 C 51.769531 -13.820312 51.769531 -14.421875 51.425781 -14.679688 Z M 37.515625 -50.480469 C 39.320312 -53.058594 43.699219 -59.066406 47.390625 -59.066406 C 49.023438 -59.066406 50.480469 -58.035156 50.652344 -56.320312 C 50.824219 -53.65625 48.507812 -49.363281 44.472656 -44.902344 C 40.351562 -40.179688 34.855469 -35.800781 29.535156 -32.96875 C 28.589844 -32.539062 27.558594 -32.023438 26.441406 -31.507812 C 30.132812 -38.460938 33.824219 -45.332031 37.515625 -50.480469 Z M 7.46875 -3.261719 C 6.523438 -2.917969 5.667969 -2.660156 4.894531 -2.660156 C 3.777344 -2.660156 2.917969 -3.089844 2.316406 -3.863281 C 1.375 -5.066406 1.375 -7.039062 2.316406 -8.242188 C 2.832031 -9.015625 3.605469 -9.359375 4.636719 -9.359375 C 6.179688 -9.359375 9.789062 -7.554688 11.160156 -6.78125 C 9.789062 -4.980469 8.5 -3.691406 7.46875 -3.261719 Z M 7.46875 -3.261719 "/></g></g></g><g fill="#f3cd74" fill-opacity="1"><g transform="translate(142.027869, 148.49999)"><g><path d="M 34.769531 -14.59375 C 32.109375 -11.074219 24.984375 -2.488281 20.949219 -1.632812 C 20.347656 -1.460938 19.746094 -1.460938 19.230469 -1.460938 C 18.199219 -1.460938 17.34375 -1.71875 16.914062 -2.316406 C 15.453125 -4.207031 16.914062 -9.1875 18.886719 -13.308594 C 19.832031 -15.023438 24.898438 -24.382812 24.984375 -24.554688 C 25.15625 -24.898438 25.070312 -25.414062 24.640625 -25.667969 C 24.46875 -25.753906 24.382812 -25.753906 24.210938 -25.753906 C 23.953125 -25.753906 23.695312 -25.585938 23.523438 -25.328125 C 22.835938 -24.210938 22.148438 -22.835938 21.378906 -21.378906 C 17.34375 -13.90625 11.246094 -2.574219 4.378906 -1.546875 C 3.863281 -1.460938 3.433594 -1.460938 3.003906 -1.460938 C 1.460938 -1.460938 0.429688 -1.890625 -0.171875 -2.746094 C -1.71875 -4.894531 -0.601562 -9.703125 1.203125 -13.308594 C 2.058594 -14.9375 4.207031 -19.144531 7.039062 -24.382812 C 7.210938 -24.8125 7.039062 -25.242188 6.695312 -25.5 C 6.523438 -25.585938 6.4375 -25.585938 6.265625 -25.585938 C 6.007812 -25.585938 5.667969 -25.414062 5.582031 -25.15625 C 2.746094 -19.917969 0.601562 -15.710938 -0.257812 -13.992188 C -1.289062 -12.019531 -1.972656 -9.789062 -2.316406 -7.8125 C -2.746094 -5.238281 -2.488281 -3.175781 -1.460938 -1.804688 C -0.601562 -0.515625 0.945312 0.171875 3.003906 0.171875 C 8.242188 0.171875 12.105469 -3.949219 15.109375 -7.8125 C 14.507812 -5.410156 14.421875 -2.917969 15.625 -1.289062 C 16.398438 -0.257812 17.601562 0.257812 19.230469 0.257812 C 19.832031 0.257812 20.519531 0.171875 21.207031 0 C 25.585938 -0.859375 30.476562 -6.867188 35.199219 -12.621094 C 35.542969 -12.878906 35.800781 -13.222656 36.058594 -13.566406 C 36.316406 -13.90625 36.316406 -14.421875 35.886719 -14.679688 C 35.714844 -14.851562 35.542969 -14.9375 35.371094 -14.9375 C 35.113281 -14.9375 34.941406 -14.765625 34.769531 -14.59375 Z M 34.769531 -14.59375 "/></g></g></g><g fill="#f3cd74" fill-opacity="1"><g transform="translate(176.797764, 148.49999)"><g><path d="M 19.746094 -14.679688 C 19.574219 -14.765625 19.402344 -14.851562 19.230469 -14.851562 C 18.972656 -14.851562 18.800781 -14.765625 18.628906 -14.59375 C 12.191406 -7.039062 6.609375 -2.316406 3.175781 -1.632812 C 2.574219 -1.460938 1.972656 -1.460938 1.460938 -1.460938 C 0.429688 -1.460938 -0.34375 -1.71875 -0.773438 -2.316406 C -2.230469 -4.207031 -0.859375 -9.1875 1.203125 -13.222656 C 2.058594 -15.023438 7.210938 -24.382812 7.210938 -24.46875 C 7.46875 -24.898438 7.296875 -25.414062 6.953125 -25.585938 C 6.78125 -25.667969 6.695312 -25.667969 6.523438 -25.667969 C 6.179688 -25.667969 5.921875 -25.585938 5.753906 -25.328125 C 5.582031 -24.898438 0.601562 -15.796875 -0.257812 -13.992188 C -1.375 -11.847656 -4.636719 -4.636719 -2.058594 -1.289062 C -1.289062 -0.257812 -0.0859375 0.257812 1.460938 0.257812 C 7.984375 0.257812 15.96875 -8.84375 19.832031 -13.480469 C 20.175781 -13.820312 20.089844 -14.335938 19.746094 -14.679688 Z M 8.328125 -28.675781 C 8.414062 -28.675781 8.585938 -28.589844 8.671875 -28.589844 C 9.015625 -28.589844 9.273438 -28.761719 9.445312 -29.105469 L 10.644531 -31.421875 C 10.816406 -31.765625 10.730469 -32.28125 10.300781 -32.453125 C 10.128906 -32.539062 10.042969 -32.539062 9.871094 -32.539062 C 9.617188 -32.539062 9.273438 -32.367188 9.1875 -32.109375 L 7.984375 -29.789062 C 7.726562 -29.449219 7.898438 -28.933594 8.328125 -28.675781 Z M 8.328125 -28.675781 "/></g></g></g><g fill="#f3cd74" fill-opacity="1"><g transform="translate(195.427566, 148.49999)"><g><path d="M 42.753906 -14.679688 C 42.582031 -14.765625 42.410156 -14.851562 42.152344 -14.851562 C 41.894531 -14.851562 41.722656 -14.765625 41.550781 -14.59375 C 36.316406 -8.585938 28.332031 -1.804688 19.230469 -1.804688 C 18.542969 -1.804688 17.855469 -1.804688 17.171875 -1.890625 C 15.023438 -2.144531 12.964844 -2.230469 11.160156 -2.230469 C 6.78125 -2.230469 3.347656 -1.71875 1.117188 -1.203125 C 9.359375 -9.871094 20.863281 -19.144531 31.164062 -25.328125 C 31.59375 -25.585938 31.679688 -26.097656 31.507812 -26.527344 C 31.335938 -26.785156 31.078125 -26.871094 30.734375 -26.871094 C 30.648438 -26.871094 30.476562 -26.871094 30.390625 -26.785156 C 28.847656 -25.925781 26.011719 -25.585938 22.921875 -25.585938 C 18.113281 -25.585938 12.792969 -26.269531 10.644531 -26.871094 C 10.214844 -26.957031 9.703125 -27.042969 9.273438 -27.042969 C 6.265625 -27.042969 4.378906 -24.46875 4.292969 -24.382812 C 4.035156 -23.953125 4.121094 -23.4375 4.464844 -23.179688 C 4.636719 -23.09375 4.722656 -23.007812 4.894531 -23.007812 C 5.152344 -23.007812 5.410156 -23.179688 5.582031 -23.351562 C 5.667969 -23.523438 7.125 -25.328125 9.273438 -25.328125 C 9.53125 -25.328125 9.871094 -25.328125 10.214844 -25.242188 C 14.335938 -24.296875 18.714844 -23.953125 22.921875 -23.953125 C 24.125 -23.953125 25.15625 -23.953125 26.097656 -24.039062 C 15.882812 -17.257812 6.179688 -9.445312 -1.972656 -0.257812 C -2.230469 0 -2.230469 0.429688 -2.058594 0.773438 C -1.890625 1.03125 -1.632812 1.117188 -1.375 1.117188 C -1.289062 1.117188 -1.203125 1.117188 -1.117188 1.117188 C -1.03125 1.03125 3.519531 -0.601562 11.074219 -0.601562 C 12.878906 -0.601562 14.851562 -0.515625 17 -0.257812 C 17.6875 -0.171875 18.371094 -0.0859375 19.144531 -0.0859375 C 28.417969 -0.0859375 36.917969 -6.78125 42.753906 -13.480469 C 43.097656 -13.820312 43.097656 -14.335938 42.753906 -14.679688 Z M 42.753906 -14.679688 "/></g></g></g><g fill="#f3cd74" fill-opacity="1"><g transform="translate(236.979744, 148.49999)"><g><path d="M 41.550781 -14.765625 C 41.382812 -14.851562 41.296875 -14.9375 41.125 -14.9375 C 40.867188 -14.9375 40.523438 -14.765625 40.351562 -14.59375 C 33.996094 -7.039062 28.332031 -2.316406 24.984375 -1.632812 C 24.382812 -1.546875 23.78125 -1.460938 23.265625 -1.460938 C 22.234375 -1.460938 21.378906 -1.71875 20.949219 -2.316406 C 19.488281 -4.207031 20.949219 -9.273438 23.007812 -13.308594 C 23.867188 -15.023438 28.933594 -24.46875 29.019531 -24.554688 C 29.191406 -24.984375 29.105469 -25.414062 28.675781 -25.667969 C 28.589844 -25.753906 28.417969 -25.753906 28.332031 -25.753906 C 27.988281 -25.753906 27.730469 -25.585938 27.558594 -25.328125 L 27.472656 -25.15625 C 25.328125 -21.464844 22.148438 -15.882812 18.371094 -11.074219 C 15.109375 -6.867188 10.558594 -1.546875 4.722656 -1.546875 C 2.660156 -1.546875 1.117188 -2.230469 0.257812 -3.605469 C -1.375 -6.09375 -0.6875 -10.472656 1.972656 -14.679688 C 6.523438 -21.804688 11.417969 -24.726562 14.851562 -24.726562 C 15.453125 -24.726562 15.96875 -24.640625 16.484375 -24.46875 C 18.371094 -23.78125 19.402344 -21.976562 19.230469 -19.660156 C 19.230469 -19.144531 19.574219 -18.800781 20.003906 -18.714844 C 20.433594 -18.714844 20.863281 -19.058594 20.863281 -19.488281 C 21.121094 -22.664062 19.660156 -25.15625 17 -26.011719 C 16.3125 -26.183594 15.625 -26.355469 14.851562 -26.355469 C 7.640625 -26.355469 -1.03125 -15.710938 -2.144531 -8.585938 C -2.488281 -6.265625 -2.144531 -4.292969 -1.117188 -2.746094 C 0.0859375 -0.859375 2.144531 0.0859375 4.808594 0.0859375 C 11.332031 0.0859375 16.3125 -5.667969 19.917969 -10.472656 C 18.886719 -7.382812 18.027344 -3.519531 19.660156 -1.375 C 20.433594 -0.34375 21.636719 0.171875 23.265625 0.171875 C 23.867188 0.171875 24.554688 0.0859375 25.328125 0 C 30.390625 -1.117188 37.6875 -8.929688 41.636719 -13.566406 C 41.894531 -13.90625 41.894531 -14.421875 41.550781 -14.765625 Z M 41.550781 -14.765625 "/></g></g></g><g fill="#f3cd74" fill-opacity="1"><g transform="translate(41.238283, 268.499982)"><g><path d="M 77.007812 -59.753906 C 76.925781 -59.839844 76.753906 -59.839844 76.667969 -59.839844 C 76.324219 -59.839844 75.980469 -59.667969 75.894531 -59.324219 C 75.035156 -57.347656 58.722656 -23.09375 58.121094 -21.890625 C 54.515625 -15.023438 50.480469 -9.703125 46.015625 -6.09375 C 42.925781 -3.519531 38.890625 -1.289062 34.769531 -1.289062 C 32.109375 -1.289062 29.960938 -2.316406 28.847656 -4.292969 C 27.214844 -6.867188 27.644531 -10.816406 29.960938 -14.9375 C 30.5625 -16.054688 31.25 -17.257812 32.023438 -18.628906 C 33.398438 -20.777344 34.683594 -23.09375 35.972656 -25.5 C 36.058594 -25.585938 36.058594 -25.585938 36.058594 -25.667969 C 41.636719 -35.371094 49.023438 -48.335938 54.429688 -58.636719 C 54.601562 -58.980469 54.429688 -59.496094 54.085938 -59.753906 C 54 -59.839844 53.828125 -59.839844 53.742188 -59.839844 C 53.398438 -59.839844 53.058594 -59.667969 52.972656 -59.410156 C 47.390625 -48.851562 39.75 -35.457031 34.167969 -25.667969 C 32.882812 -23.351562 31.679688 -21.292969 30.648438 -19.402344 C 27.386719 -14.421875 23.953125 -10.300781 20.347656 -7.125 C 17.085938 -4.378906 12.449219 -1.375 7.984375 -1.375 C 5.582031 -1.375 3.605469 -2.316406 2.574219 -4.035156 C 1.03125 -6.609375 1.460938 -10.644531 3.949219 -14.9375 C 5.839844 -18.371094 7.898438 -21.890625 10.128906 -25.585938 C 12.878906 -30.21875 16.054688 -35.542969 19.402344 -41.550781 L 22.0625 -46.101562 C 22.148438 -46.273438 23.4375 -48.507812 24.46875 -50.996094 C 26.011719 -54.773438 26.183594 -57.261719 24.984375 -58.636719 C 24.46875 -59.238281 23.609375 -59.582031 22.492188 -59.582031 C 21.292969 -59.582031 19.660156 -59.152344 17.601562 -58.292969 C 17.257812 -58.121094 17 -57.691406 17.171875 -57.261719 C 17.34375 -56.921875 17.6875 -56.75 17.941406 -56.75 C 18.027344 -56.75 18.199219 -56.75 18.285156 -56.835938 C 20.003906 -57.605469 21.464844 -57.949219 22.492188 -57.949219 C 23.09375 -57.949219 23.523438 -57.777344 23.78125 -57.519531 C 24.125 -57.179688 24.726562 -55.890625 23.007812 -51.683594 C 21.976562 -49.195312 20.605469 -46.960938 20.605469 -46.960938 L 18.027344 -42.410156 C 14.679688 -36.316406 11.503906 -31.078125 8.671875 -26.355469 C 6.523438 -22.664062 4.378906 -19.230469 2.488281 -15.796875 C -0.257812 -10.902344 -0.6875 -6.351562 1.203125 -3.175781 C 2.832031 -0.515625 5.496094 0.257812 8.414062 0.257812 C 15.28125 0.0859375 22.320312 -6.179688 26.699219 -11.246094 C 25.839844 -8.242188 26.097656 -5.496094 27.386719 -3.433594 C 29.105469 -0.601562 32.109375 0.34375 35.199219 0.34375 C 45.929688 0.0859375 55.117188 -12.621094 59.582031 -21.121094 C 60.183594 -22.320312 76.496094 -56.664062 77.351562 -58.636719 C 77.609375 -59.066406 77.351562 -59.582031 77.007812 -59.753906 Z M 77.007812 -59.753906 "/></g></g></g><g fill="#f3cd74" fill-opacity="1"><g transform="translate(112.752671, 268.499982)"><g><path d="M 33.484375 -14.59375 C 33.3125 -14.765625 33.140625 -14.851562 32.882812 -14.851562 C 32.710938 -14.851562 32.539062 -14.765625 32.367188 -14.59375 C 27.300781 -8.671875 19.058594 -1.03125 10.730469 -1.03125 C 7.8125 -1.03125 4.292969 -1.890625 2.316406 -4.121094 C 4.035156 -4.980469 9.101562 -7.554688 13.820312 -12.191406 C 17.34375 -15.625 18.886719 -19.230469 18.027344 -22.148438 C 17.34375 -24.554688 15.109375 -25.839844 12.707031 -25.839844 C 6.523438 -25.839844 1.03125 -18.371094 -0.515625 -12.964844 C -1.289062 -10.300781 -1.289062 -7.726562 -0.429688 -5.582031 C 0.429688 -3.261719 2.660156 -0.34375 8.414062 0.429688 C 9.101562 0.601562 9.871094 0.601562 10.644531 0.601562 C 19.660156 0.601562 28.074219 -7.039062 33.566406 -13.480469 C 33.910156 -13.820312 33.824219 -14.335938 33.484375 -14.59375 Z M 1.375 -5.496094 C 1.289062 -5.753906 1.117188 -5.921875 1.03125 -6.179688 C -0.34375 -9.871094 1.203125 -15.023438 5.066406 -19.746094 C 7.8125 -23.007812 10.644531 -24.210938 12.707031 -24.210938 C 13.050781 -24.210938 13.394531 -24.125 13.738281 -24.125 C 15.109375 -23.78125 16.054688 -22.921875 16.484375 -21.636719 C 17.085938 -19.402344 15.710938 -16.3125 12.707031 -13.394531 C 7.898438 -8.671875 2.660156 -6.09375 1.375 -5.496094 Z M 1.375 -5.496094 "/></g></g></g><g fill="#f3cd74" fill-opacity="1"><g transform="translate(145.118723, 268.499982)"><g><path d="M 19.746094 -14.679688 C 19.574219 -14.765625 19.402344 -14.851562 19.230469 -14.851562 C 18.972656 -14.851562 18.800781 -14.765625 18.628906 -14.59375 C 12.191406 -7.039062 6.609375 -2.316406 3.175781 -1.632812 C 2.574219 -1.460938 1.972656 -1.460938 1.460938 -1.460938 C 0.429688 -1.460938 -0.34375 -1.71875 -0.773438 -2.316406 C -2.230469 -4.207031 -0.859375 -9.1875 1.203125 -13.222656 C 2.058594 -15.023438 7.210938 -24.382812 7.210938 -24.46875 C 7.46875 -24.898438 7.296875 -25.414062 6.953125 -25.585938 C 6.78125 -25.667969 6.695312 -25.667969 6.523438 -25.667969 C 6.179688 -25.667969 5.921875 -25.585938 5.753906 -25.328125 C 5.582031 -24.898438 0.601562 -15.796875 -0.257812 -13.992188 C -1.375 -11.847656 -4.636719 -4.636719 -2.058594 -1.289062 C -1.289062 -0.257812 -0.0859375 0.257812 1.460938 0.257812 C 7.984375 0.257812 15.96875 -8.84375 19.832031 -13.480469 C 20.175781 -13.820312 20.089844 -14.335938 19.746094 -14.679688 Z M 8.328125 -28.675781 C 8.414062 -28.675781 8.585938 -28.589844 8.671875 -28.589844 C 9.015625 -28.589844 9.273438 -28.761719 9.445312 -29.105469 L 10.644531 -31.421875 C 10.816406 -31.765625 10.730469 -32.28125 10.300781 -32.453125 C 10.128906 -32.539062 10.042969 -32.539062 9.871094 -32.539062 C 9.617188 -32.539062 9.273438 -32.367188 9.1875 -32.109375 L 7.984375 -29.789062 C 7.726562 -29.449219 7.898438 -28.933594 8.328125 -28.675781 Z M 8.328125 -28.675781 "/></g></g></g><g fill="#f3cd74" fill-opacity="1"><g transform="translate(163.748525, 268.499982)"><g><path d="M 25.242188 -14.679688 C 25.070312 -14.765625 24.898438 -14.851562 24.726562 -14.851562 C 24.46875 -14.851562 24.210938 -14.765625 24.039062 -14.59375 C 20.519531 -10.300781 14.164062 -4.980469 7.898438 -2.488281 C 9.617188 -4.378906 10.902344 -7.125 11.675781 -10.644531 C 12.707031 -15.539062 11.074219 -21.207031 9.53125 -25.242188 C 10.214844 -26.269531 11.417969 -28.332031 12.535156 -30.648438 C 14.851562 -35.285156 15.710938 -38.71875 15.023438 -40.867188 C 14.59375 -42.496094 13.050781 -43.355469 11.417969 -43.355469 C 7.898438 -43.355469 5.839844 -39.75 5.238281 -36.660156 C 4.808594 -34.339844 5.066406 -31.851562 5.921875 -29.535156 C 6.09375 -29.191406 6.265625 -28.761719 6.523438 -28.160156 C 6.867188 -27.472656 7.210938 -26.527344 7.640625 -25.328125 C 6.265625 -23.179688 3.777344 -19.230469 -0.171875 -14.335938 C -0.515625 -13.992188 -0.429688 -13.480469 -0.0859375 -13.136719 C -0.0859375 -13.136719 0.0859375 -13.050781 0.34375 -13.050781 C 0.601562 -13.050781 0.859375 -13.136719 1.03125 -13.308594 C 4.550781 -17.601562 6.953125 -21.207031 8.414062 -23.4375 C 9.703125 -19.746094 10.902344 -15.023438 10.042969 -10.988281 C 8.757812 -4.980469 5.667969 -1.375 1.71875 -1.375 C 0 -1.460938 -1.375 -1.890625 -2.144531 -2.746094 C -2.832031 -3.605469 -2.917969 -4.636719 -2.230469 -6.007812 C -2.058594 -6.351562 -2.230469 -6.867188 -2.574219 -7.039062 C -2.746094 -7.125 -2.832031 -7.125 -3.003906 -7.125 C -3.261719 -7.125 -3.605469 -6.953125 -3.691406 -6.695312 C -4.636719 -4.808594 -4.550781 -3.003906 -3.347656 -1.71875 C -2.230469 -0.34375 -0.0859375 0.34375 2.316406 0.34375 C 10.300781 0.34375 20.605469 -7.726562 25.328125 -13.480469 C 25.667969 -13.820312 25.585938 -14.421875 25.242188 -14.679688 Z M 7.984375 -28.847656 C 7.8125 -29.363281 7.554688 -29.875 7.46875 -30.132812 C 5.839844 -34.511719 7.039062 -38.804688 9.015625 -40.695312 C 9.53125 -41.125 10.300781 -41.722656 11.332031 -41.722656 C 11.675781 -41.722656 12.105469 -41.636719 12.449219 -41.464844 C 12.964844 -41.296875 13.308594 -40.953125 13.480469 -40.351562 C 14.335938 -37.433594 10.988281 -30.90625 8.757812 -27.128906 C 8.5 -27.816406 8.242188 -28.332031 7.984375 -28.847656 Z M 7.984375 -28.847656 "/></g></g></g><g fill="#f3cd74" fill-opacity="1"><g transform="translate(187.872829, 268.499982)"><g><path d="M 37.773438 -14.679688 C 37.601562 -14.765625 37.433594 -14.851562 37.261719 -14.851562 C 37.003906 -14.851562 36.832031 -14.765625 36.660156 -14.59375 C 32.625 -9.957031 28.933594 -7.8125 24.296875 -7.8125 C 23.265625 -7.8125 22.148438 -7.984375 21.035156 -8.15625 C 20.605469 -8.15625 20.175781 -8.242188 19.746094 -8.328125 C 20.261719 -9.015625 20.777344 -9.703125 21.292969 -10.472656 C 24.296875 -15.109375 25.070312 -20.089844 23.09375 -23.179688 C 21.890625 -25.070312 19.746094 -26.097656 17 -26.097656 C 13.050781 -26.097656 9.1875 -24.039062 6.265625 -21.464844 C 5.921875 -21.207031 5.667969 -20.949219 5.324219 -20.605469 C 14.25 -36.402344 25.753906 -56.578125 28.246094 -60.871094 C 28.503906 -61.210938 28.332031 -61.726562 27.902344 -61.984375 C 27.816406 -62.070312 27.644531 -62.070312 27.558594 -62.070312 C 27.214844 -62.070312 26.957031 -61.898438 26.785156 -61.640625 C 23.867188 -56.578125 7.984375 -28.761719 -0.859375 -12.964844 C -3.003906 -9.53125 -4.894531 -5.921875 -6.695312 -2.316406 C -6.867188 -1.972656 -6.695312 -1.460938 -6.351562 -1.203125 C -6.179688 -1.203125 -6.09375 -1.117188 -5.921875 -1.117188 C -5.667969 -1.117188 -5.324219 -1.289062 -5.238281 -1.632812 C -4.636719 -2.832031 -2.402344 -6.78125 0.601562 -12.105469 C 4.207031 -17.6875 9.789062 -24.382812 17.085938 -24.382812 C 19.230469 -24.382812 20.863281 -23.695312 21.71875 -22.234375 C 22.492188 -21.121094 22.75 -19.402344 22.40625 -17.515625 C 21.976562 -14.164062 20.089844 -11.332031 18.027344 -8.757812 C 17.429688 -8.929688 16.828125 -9.101562 16.3125 -9.1875 C 13.566406 -9.957031 10.644531 -10.730469 7.984375 -10.730469 C 5.066406 -10.730469 2.316406 -9.789062 0.34375 -6.953125 C -0.6875 -5.496094 -0.945312 -3.863281 -0.34375 -2.488281 C 0.429688 -0.945312 2.316406 0.171875 4.636719 0.34375 C 10.386719 0.34375 14.9375 -2.746094 18.628906 -6.953125 C 20.433594 -6.523438 22.40625 -6.179688 24.210938 -6.179688 C 29.960938 -6.179688 34.253906 -9.273438 37.859375 -13.480469 C 38.203125 -13.820312 38.117188 -14.335938 37.773438 -14.679688 Z M 1.203125 -3.175781 C 0.773438 -4.035156 0.945312 -4.980469 1.71875 -6.007812 C 3.261719 -8.15625 5.324219 -9.101562 7.984375 -9.101562 C 10.472656 -9.101562 13.222656 -8.328125 15.882812 -7.640625 C 16.140625 -7.554688 16.484375 -7.46875 16.828125 -7.382812 C 12.792969 -3.003906 8.5 -1.375 5.496094 -1.375 C 4.035156 -1.375 1.890625 -1.632812 1.203125 -3.175781 Z M 1.203125 -3.175781 "/></g></g></g><g fill="#f3cd74" fill-opacity="1"><g transform="translate(224.531469, 268.499982)"><g><path d="M 33.484375 -14.59375 C 33.3125 -14.765625 33.140625 -14.851562 32.882812 -14.851562 C 32.710938 -14.851562 32.539062 -14.765625 32.367188 -14.59375 C 27.300781 -8.671875 19.058594 -1.03125 10.730469 -1.03125 C 7.8125 -1.03125 4.292969 -1.890625 2.316406 -4.121094 C 4.035156 -4.980469 9.101562 -7.554688 13.820312 -12.191406 C 17.34375 -15.625 18.886719 -19.230469 18.027344 -22.148438 C 17.34375 -24.554688 15.109375 -25.839844 12.707031 -25.839844 C 6.523438 -25.839844 1.03125 -18.371094 -0.515625 -12.964844 C -1.289062 -10.300781 -1.289062 -7.726562 -0.429688 -5.582031 C 0.429688 -3.261719 2.660156 -0.34375 8.414062 0.429688 C 9.101562 0.601562 9.871094 0.601562 10.644531 0.601562 C 19.660156 0.601562 28.074219 -7.039062 33.566406 -13.480469 C 33.910156 -13.820312 33.824219 -14.335938 33.484375 -14.59375 Z M 1.375 -5.496094 C 1.289062 -5.753906 1.117188 -5.921875 1.03125 -6.179688 C -0.34375 -9.871094 1.203125 -15.023438 5.066406 -19.746094 C 7.8125 -23.007812 10.644531 -24.210938 12.707031 -24.210938 C 13.050781 -24.210938 13.394531 -24.125 13.738281 -24.125 C 15.109375 -23.78125 16.054688 -22.921875 16.484375 -21.636719 C 17.085938 -19.402344 15.710938 -16.3125 12.707031 -13.394531 C 7.898438 -8.671875 2.660156 -6.09375 1.375 -5.496094 Z M 1.375 -5.496094 "/></g></g></g><g fill="#f3cd74" fill-opacity="1"><g transform="translate(256.897509, 268.499982)"><g><path d="M 33.484375 -14.765625 C 33.3125 -14.851562 33.226562 -14.9375 33.054688 -14.9375 C 32.796875 -14.9375 32.539062 -14.765625 32.367188 -14.59375 C 32.28125 -14.59375 29.277344 -10.644531 25.15625 -7.296875 C 22.234375 -4.894531 18.285156 -2.230469 14.765625 -2.230469 C 13.90625 -2.230469 13.050781 -2.402344 12.277344 -2.746094 C 10.730469 -3.433594 9.957031 -4.378906 9.957031 -5.839844 C 9.789062 -11.074219 19.402344 -20.691406 23.78125 -23.265625 C 24.210938 -23.523438 24.46875 -23.695312 24.46875 -23.695312 C 24.898438 -23.953125 24.984375 -24.382812 24.8125 -24.8125 C 24.640625 -25.070312 24.382812 -25.242188 24.039062 -25.242188 C 23.953125 -25.242188 23.78125 -25.242188 23.695312 -25.15625 C 23.523438 -25.070312 23.265625 -24.898438 23.007812 -24.726562 C 21.378906 -23.867188 16.570312 -21.550781 11.847656 -21.550781 C 10.730469 -21.550781 9.617188 -21.636719 8.585938 -21.976562 C 8.242188 -22.0625 7.898438 -22.148438 7.554688 -22.320312 C 9.101562 -24.898438 10.730469 -27.988281 11.933594 -31.078125 C 14.679688 -38.289062 12.707031 -41.296875 11.246094 -42.496094 C 10.300781 -43.269531 9.101562 -43.699219 7.8125 -43.699219 C 4.292969 -43.699219 0.945312 -40.867188 -0.429688 -37.773438 C -1.375 -35.628906 -1.546875 -33.140625 -0.945312 -30.5625 C -0.34375 -27.816406 0.859375 -25.5 2.660156 -23.695312 C 3.347656 -22.921875 4.207031 -22.234375 5.152344 -21.636719 C 2.488281 -17.601562 0.0859375 -14.851562 0.0859375 -14.765625 C -0.171875 -14.421875 -0.171875 -13.90625 0.171875 -13.566406 C 0.34375 -13.480469 0.515625 -13.394531 0.6875 -13.394531 C 0.945312 -13.394531 1.203125 -13.480469 1.375 -13.652344 C 1.546875 -13.90625 3.949219 -16.742188 6.609375 -20.949219 C 8.242188 -20.089844 9.957031 -19.917969 11.847656 -19.917969 C 13.738281 -19.917969 15.882812 -20.261719 18.113281 -20.949219 C 16.914062 -19.832031 15.710938 -18.628906 14.507812 -17.257812 C 11.589844 -14.078125 8.15625 -9.445312 8.328125 -5.753906 C 8.414062 -3.691406 9.53125 -2.144531 11.675781 -1.203125 C 12.621094 -0.859375 13.652344 -0.601562 14.765625 -0.601562 C 18.714844 -0.601562 23.351562 -3.605469 26.269531 -6.007812 C 30.476562 -9.53125 33.484375 -13.394531 33.652344 -13.566406 C 33.910156 -13.90625 33.824219 -14.421875 33.484375 -14.765625 Z M 6.007812 -23.09375 C 3.347656 -24.726562 1.375 -27.472656 0.601562 -30.90625 C -0.515625 -35.886719 1.804688 -39.40625 4.378906 -40.953125 C 5.496094 -41.636719 6.695312 -41.980469 7.8125 -41.980469 C 8.757812 -41.980469 9.617188 -41.722656 10.214844 -41.210938 C 12.019531 -39.75 12.105469 -36.230469 10.386719 -31.679688 C 9.1875 -28.589844 7.640625 -25.667969 6.007812 -23.09375 Z M 6.007812 -23.09375 "/></g></g></g><g fill="#f3cd74" fill-opacity="1"><g transform="translate(289.26355, 268.499982)"><g><path d="M 39.75 -14.679688 C 39.578125 -14.851562 39.40625 -14.9375 39.234375 -14.9375 C 38.976562 -14.9375 38.804688 -14.765625 38.632812 -14.59375 C 32.195312 -7.296875 25.070312 -1.460938 14.851562 4.292969 C 15.882812 2.144531 16.828125 0 17.769531 -2.058594 C 20.089844 -7.039062 21.976562 -11.332031 23.007812 -13.308594 C 23.867188 -15.109375 29.019531 -24.46875 29.019531 -24.554688 C 29.277344 -24.984375 29.105469 -25.5 28.761719 -25.667969 C 28.589844 -25.753906 28.503906 -25.753906 28.332031 -25.753906 C 27.988281 -25.753906 27.730469 -25.667969 27.644531 -25.414062 L 27.472656 -25.15625 C 25.328125 -21.550781 22.148438 -15.96875 18.371094 -11.074219 C 15.109375 -6.867188 10.644531 -1.632812 4.808594 -1.632812 C 2.746094 -1.632812 1.117188 -2.316406 0.257812 -3.691406 C -1.375 -6.179688 -0.6875 -10.472656 1.972656 -14.679688 C 6.523438 -21.804688 11.417969 -24.726562 14.851562 -24.726562 C 15.453125 -24.726562 15.96875 -24.640625 16.484375 -24.46875 C 18.457031 -23.867188 19.488281 -22.0625 19.230469 -19.660156 C 19.230469 -19.230469 19.574219 -18.800781 20.003906 -18.800781 C 20.519531 -18.714844 20.863281 -19.058594 20.949219 -19.488281 C 21.121094 -22.664062 19.660156 -25.15625 17.085938 -26.011719 C 16.398438 -26.269531 15.710938 -26.355469 14.9375 -26.355469 C 7.554688 -26.355469 -1.03125 -15.796875 -2.144531 -8.585938 C -2.488281 -6.265625 -2.144531 -4.292969 -1.117188 -2.746094 C 0.0859375 -0.859375 2.144531 0.0859375 4.894531 0.0859375 C 5.410156 0.0859375 6.007812 0.0859375 6.609375 -0.0859375 C 11.160156 -0.6875 15.625 -4.894531 19.574219 -9.957031 C 18.628906 -7.898438 17.515625 -5.410156 16.3125 -2.746094 C 15.023438 0 13.738281 2.832031 12.449219 5.582031 C 7.296875 8.414062 1.375 11.160156 -5.496094 14.078125 C -10.128906 16.140625 -13.652344 18.628906 -15.96875 21.636719 C -17.941406 24.210938 -18.886719 27.042969 -18.542969 29.617188 C -18.113281 33.484375 -15.023438 36.058594 -11.246094 36.058594 C -2.488281 36.058594 4.722656 24.984375 8.242188 18.285156 C 9.703125 15.453125 11.675781 11.332031 13.738281 6.78125 C 23.695312 1.289062 32.28125 -4.808594 39.835938 -13.566406 C 40.179688 -13.90625 40.09375 -14.421875 39.75 -14.679688 Z M 6.78125 17.515625 C 3.605469 23.609375 -3.347656 34.339844 -11.332031 34.339844 C -14.25 34.339844 -16.570312 32.539062 -16.914062 29.449219 C -17.171875 27.300781 -16.398438 24.8125 -14.59375 22.578125 C -12.535156 19.917969 -9.101562 17.515625 -4.808594 15.625 C 1.375 12.964844 6.609375 10.472656 11.332031 8.070312 C 9.617188 11.761719 7.984375 15.195312 6.78125 17.515625 Z M 6.78125 17.515625 "/></g></g></g></svg>