<svg xmlns="http://www.w3.org/2000/svg" viewBox="0 0 24 24" fill="#f5fbf9"><path fill-rule="evenodd" clip-rule="evenodd" d="M7.7 6.5a1 1 0 011-1h6.522a1 1 0 110 2H8.7a1 1 0 01-1-1z"/><path fill-rule="evenodd" clip-rule="evenodd" d="M4.973 9.692C6.653 7.414 9.113 5.5 12 5.5c2.886 0 5.347 1.914 7.027 4.192 1.689 2.29 2.773 5.186 2.773 7.58 0 2.518-1.2 4.271-3.086 5.336C16.902 23.63 14.5 24 12 24s-4.902-.37-6.714-1.392C3.4 21.543 2.2 19.79 2.2 17.272c0-2.394 1.084-5.29 2.773-7.58zm1.61 1.187C5.085 12.91 4.2 15.4 4.2 17.272c0 1.75.77 2.861 2.069 3.594C7.642 21.64 9.64 22 12 22s4.358-.36 5.731-1.134c1.299-.733 2.069-1.843 2.069-3.594 0-1.874-.886-4.364-2.382-6.393C15.913 8.84 13.974 7.5 12 7.5c-1.974 0-3.913 1.338-5.418 3.38z"/><path d="M12 13.742a1.365 1.365 0 01-1.375-1.375c0-.777.617-1.375 1.375-1.375.723 0 1.317.543 1.37 1.266.006.061.052.109.112.109h.69a.118.118 0 00.117-.121 2.28 2.28 0 00-1.83-2.126v-.847a.115.115 0 00-.115-.115h-.688a.115.115 0 00-.114.115v.847a2.28 2.28 0 00-1.834 2.247A2.283 2.283 0 0012 14.658c.758 0 1.375.599 1.375 1.375 0 .777-.617 1.375-1.375 1.375a1.364 1.364 0 01-1.37-1.267.113.113 0 00-.112-.108h-.69a.118.118 0 00-.116.121 2.279 2.279 0 001.83 2.125v.848c0 .063.051.115.114.115h.688a.115.115 0 00.114-.115v-.848a2.28 2.28 0 001.834-2.246A2.283 2.283 0 0012 13.742z"/><path fill-rule="evenodd" clip-rule="evenodd" d="M11.292 9.273c0-.201.163-.365.364-.365h.688c.201 0 .364.164.364.365v.651a2.529 2.529 0 011.83 2.309.367.367 0 01-.367.384h-.689a.363.363 0 01-.36-.34A1.114 1.114 0 0012 11.242c-.622 0-1.125.488-1.125 1.125 0 .636.503 1.125 1.125 1.125 1.4 0 2.542 1.12 2.542 2.541a2.53 2.53 0 01-1.834 2.442v.652a.365.365 0 01-.364.365h-.688a.365.365 0 01-.364-.365v-.651a2.528 2.528 0 01-1.83-2.309.368.368 0 01.367-.384h.689c.205 0 .347.164.36.34A1.114 1.114 0 0012 17.158c.622 0 1.125-.489 1.125-1.125s-.503-1.125-1.125-1.125c-1.4 0-2.542-1.12-2.542-2.541a2.53 2.53 0 011.834-2.443v-.651zm.5.135v.917l-.201.04a2.03 2.03 0 00-1.633 2.002c0 1.142.915 2.041 2.042 2.041.894 0 1.625.709 1.625 1.625 0 .917-.731 1.625-1.625 1.625-.81 0-1.487-.582-1.606-1.375h-.42c.105.884.765 1.58 1.617 1.751l.2.04v.918h.417v-.918l.201-.04a2.03 2.03 0 001.633-2A2.033 2.033 0 0012 13.991a1.615 1.615 0 01-1.625-1.625c0-.917.731-1.625 1.625-1.625.81 0 1.487.581 1.606 1.375h.42a2.029 2.029 0 00-1.617-1.752l-.2-.04v-.917h-.417zm-1.83 6.732v.002-.002zM6.213 0h11.726l-2.825 6.356-1.828-.812L14.861 2H8.987L10.2 5.634 8.3 6.266 6.213 0z"/></svg>